<svg xmlns="http://www.w3.org/2000/svg" viewBox="0 0 1024 1024" role="img" aria-label="VHSolara logo">
  <defs>
    <linearGradient id="bg" x1="155" y1="80" x2="870" y2="930" gradientUnits="userSpaceOnUse">
      <stop offset="0" stop-color="#ffe98f"/>
      <stop offset="0.55" stop-color="#ffc44e"/>
      <stop offset="1" stop-color="#ff9828"/>
    </linearGradient>
    <filter id="softShadow" x="-20%" y="-20%" width="140%" height="145%">
      <feDropShadow dx="0" dy="20" stdDeviation="20" flood-color="#001b35" flood-opacity="0.20"/>
    </filter>
  </defs>
  <rect x="74" y="74" width="876" height="876" rx="172" fill="url(#bg)" filter="url(#softShadow)"/>
  <g fill="#073f59" transform="translate(240.00 323.00) scale(4.0000) translate(-440 -229)">
    <path d="M440,236L483,325L498,326L541,237L526,237L493,307L490,309L455,236Z"/>
    <path d="M563,236L563,272L561,274L533,274L528,286L562,286L563,326L576,326L576,236Z"/>
    <path d="M518,229L513,229L496,266L501,266Z"/>
    <path d="M535,300L535,305L547,313L535,321L536,326L554,316L554,311Z"/>
    <path d="M490,235L471,246L471,250L490,261L490,255L478,248L490,240Z"/>
    <path d="M530,295L524,296L508,331L513,331Z"/>
  </g>
</svg>
